<?xml version="1.0" encoding="UTF-8"?>
<svg id="Layer_2" data-name="Layer 2" xmlns="http://www.w3.org/2000/svg" viewBox="0 0 799.87 232.78">
  <g id="Layer_1-2" data-name="Layer 1">
    <g>
      <path d="M91.36,187.34c.17-.93.37-1.84.62-2.73l-.62,2.73Z" fill="none" stroke="#3900e3" stroke-miterlimit="10" stroke-width="0"/>
      <path d="M5.37,139.91l.36-1.59c-.15.52-.27,1.05-.36,1.59Z" fill="#fff"/>
      <path d="M161.93,30.39s-.05-.02-.06-.02l-2.4-.76L70.32,1.45c-.13-.04-.26-.09-.4-.12-1.65-.51-3.36-.88-5.13-1.1-15.34-1.91-29.41,8.09-32.95,22.77l-.16.69L5.73,138.32l-.36,1.59c-.04.24-.08.49-.11.74-1.05,8.47,4.96,16.18,13.42,17.23,3.98.49,7.8-.58,10.84-2.73l2.47-2.19,60-53.11c.2-.18.4-.36.61-.54,5.91-5.07,13.86-7.72,22.19-6.68,1.8.22,3.54.61,5.2,1.14l1.24.43,49.92,17.13,9.82-45.15.32-1.5c.13-.66.24-1.32.32-2,1.78-14.31-6.7-27.54-19.69-32.28Z" fill="#5f5ffd"/>
      <path d="M31.99,152.96l-2.47,2.19c.9-.64,1.73-1.37,2.47-2.19Z" fill="#fff"/>
      <path d="M163.38,219.74l-5.33,4.93c1.92-1.47,3.71-3.12,5.33-4.93Z" fill="#ff33b1"/>
      <path d="M207.05,123.64l-3.5-1.2-32.4-11.11-49.92-17.13-1.24-.43c-1.67-.53-3.4-.92-5.2-1.14-8.34-1.04-16.28,1.61-22.19,6.68-.21.17-.41.35-.61.54l-60,53.11c-.75.82-1.57,1.55-2.47,2.19-3.04,2.15-6.85,3.22-10.84,2.73-8.47-1.05-14.48-8.77-13.42-17.23.03-.25.07-.49.11-.74l-4.28,18.89-.62,2.73s0,.04-.01.06c-.09.51-.16,1.01-.23,1.52-1.72,13.84,6.29,26.65,18.68,31.56l2.47.85,2.74.95c.89.46,1.82.87,2.81,1.21l89.59,30.93,9.7,3.35c1.01.21,2.04.39,3.08.52,10.66,1.32,20.85-1.75,28.75-7.81l5.33-4.93,50.79-46.93,2.73-2.52c4.12-4.33,6.93-9.97,7.73-16.36,1.64-13.19-5.87-25.41-17.57-30.28Z" fill="#afaffe"/>
    </g>
    <g>
      <path d="M315.41,40.53h31.05l-22.68,123.54h58.58l-4.84,26.21h-89.85l27.75-149.74Z" fill="#30307f"/>
      <path d="M419.68,186.64c-8.3-3.74-14.64-9.06-19.05-15.96-4.4-6.9-6.61-14.97-6.61-24.22,0-11.45,2.68-22.17,8.04-32.15,5.36-9.98,12.96-17.98,22.79-24,9.83-6.02,21.14-9.03,33.91-9.03,14.24,0,25.25,3.56,33.03,10.68,7.78,7.12,11.67,16.99,11.67,29.62,0,5.73-.74,11.6-2.2,17.62h-78.62c-.59,9.1,1.98,16.04,7.71,20.81,5.73,4.77,13.51,7.16,23.34,7.16,14.39,0,27.09-3.82,38.1-11.45l-4.84,26.87c-10.43,6.46-23.05,9.69-37.88,9.69-11.31,0-21.11-1.87-29.4-5.62ZM477.49,122.23c-.74-12.48-7.71-18.72-20.92-18.72-6.31,0-12.08,1.73-17.29,5.17-5.21,3.45-9.29,7.97-12.22,13.54h50.43Z" fill="#30307f"/>
      <path d="M521.97,189.94c-6.31-1.54-11.23-3.49-14.75-5.84l5.29-27.97c2.2,3.38,6.57,6.39,13.1,9.03,6.53,2.64,13.03,3.96,19.49,3.96,4.7,0,8.59-1.06,11.67-3.19,3.08-2.13,4.62-5.17,4.62-9.14,0-2.2-.77-4.04-2.31-5.5-1.54-1.47-4-2.79-7.38-3.96l-12.11-4.18c-13.07-4.55-19.6-12.7-19.6-24.44,0-7.49,2.05-14.06,6.17-19.71,4.11-5.65,9.76-10.02,16.96-13.1,7.19-3.08,15.42-4.62,24.66-4.62,11.74,0,21.5,1.69,29.29,5.06l-4.84,26.65c-2.79-2.64-6.61-4.84-11.45-6.61s-9.76-2.64-14.75-2.64-8.92.96-12.22,2.86c-3.3,1.91-4.96,4.62-4.96,8.15,0,2.06.7,3.71,2.09,4.96,1.39,1.25,3.56,2.31,6.5,3.19l12.11,4.18c7.34,2.64,12.62,6.13,15.85,10.46,3.23,4.33,4.85,9.51,4.85,15.53,0,7.19-1.8,13.76-5.39,19.71-3.6,5.95-8.96,10.68-16.08,14.2-7.12,3.52-15.82,5.28-26.1,5.28-7.49,0-14.39-.77-20.7-2.31Z" fill="#30307f"/>
      <path d="M614.45,189.94c-6.31-1.54-11.23-3.49-14.75-5.84l5.28-27.97c2.2,3.38,6.57,6.39,13.1,9.03,6.53,2.64,13.03,3.96,19.49,3.96,4.7,0,8.59-1.06,11.67-3.19,3.08-2.13,4.62-5.17,4.62-9.14,0-2.2-.77-4.04-2.31-5.5-1.54-1.47-4-2.79-7.38-3.96l-12.11-4.18c-13.07-4.55-19.6-12.7-19.6-24.44,0-7.49,2.05-14.06,6.17-19.71,4.11-5.65,9.76-10.02,16.96-13.1,7.19-3.08,15.42-4.62,24.66-4.62,11.74,0,21.5,1.69,29.29,5.06l-4.84,26.65c-2.79-2.64-6.61-4.84-11.45-6.61s-9.77-2.64-14.75-2.64-8.92.96-12.22,2.86c-3.3,1.91-4.95,4.62-4.95,8.15,0,2.06.69,3.71,2.09,4.96,1.39,1.25,3.56,2.31,6.5,3.19l12.11,4.18c7.34,2.64,12.62,6.13,15.86,10.46,3.23,4.33,4.84,9.51,4.84,15.53,0,7.19-1.8,13.76-5.39,19.71-3.6,5.95-8.96,10.68-16.08,14.2-7.12,3.52-15.82,5.28-26.09,5.28-7.49,0-14.39-.77-20.7-2.31Z" fill="#30307f"/>
      <path d="M712.23,83.25h27.97l-2.64,12.99c8.37-9.98,19.3-14.97,32.81-14.97,9.1,0,16.3,2.79,21.58,8.37,5.29,5.58,7.93,13.14,7.93,22.68,0,3.38-.3,6.61-.88,9.69l-12.77,68.27h-29.95l11.45-62.54c.58-3.82.88-6.39.88-7.71,0-8.95-4.18-13.43-12.55-13.43-5.43,0-10.1,1.87-13.98,5.62-3.89,3.74-6.57,8.7-8.04,14.86l-11.67,63.2h-29.95l19.82-107.02Z" fill="#30307f"/>
    </g>
  </g>
</svg>